{"title":"I Am Belfast 2015 BDRip 720p Legendado PT-BR","uid":15220296,"size":3516294404,"categoryP":"video","categoryS":"hd___movies","magnet":"?xt=urn:btih:1b85ae6599fe29a7fe49b465dde0b3d245e8ad7b&amp;dn=I+Am+Belfast+2015+BDRip+720p+Legendado+PT-BR&amp;tr=udp%3A%2F%2Ftracker.leechers-paradise.org%3A6969&amp;tr=udp%3A%2F%2Fzer0day.ch%3A1337&amp;tr=udp%3A%2F%2Fopen.demonii.com%3A1337&amp;tr=udp%3A%2F%2Ftracker.coppersurfer.tk%3A6969&amp;tr=udp%3A%2F%2Fexodus.desync.com%3A6969","seeders":1,"leechers":0,"uploader":null,"files":1,"time":1467730638,"description":"Audio: English\r\nLegendas/subtitles: Português / English (MKV track)\r\n\r\n====================================================\r\n\r\nA visual, poetic depiction of Belfast and its citizens, told with love and passion of someone, who has left the city many years ago but is still fascinated by it. Themes brought up in the film range from the landscapes surrounding the city, its changing architecture and social structure to the political and personal repercussions of the Northern Irish conflict. \r\n\r\n=====================================================\r\n\r\nUma descrição visual e poética de Belfast e seus cidadãos, contada com amor e paixão por alguém que a deixou muitos anos atrás mas ainda é fascinado por ela. Os temas abordados no filme vão desde as paisagens que cercam a cidade, as mudanças em sua arquitetura e estrutura social, até as repercuções políticas e pessoais do Conflito da Irlanda do Norte.\r\n\r\n======================================================\r\n\r\nVideo\r\nID                             : 1\r\nFormat                         : AVC\r\nFormat/Info                    : Advanced Video Codec\r\nFormat profile                 :   \r\nFormat settings, CABAC         : Yes\r\nFormat settings, ReFrames      : 9 frames\r\nCodec ID                       : V_MPEG4/ISO/AVC\r\nDuration                       : 1h 24mn\r\nBit rate                       : 4 823 Kbps\r\nWidth                          : 1 280 pixels\r\nHeight                         : 720 pixels\r\nDisplay aspect ratio           : 16:9\r\nFrame rate mode                : Constant\r\nFrame rate                     : 24.000 fps\r\nColor space                    : YUV\r\nChroma subsampling             : 4:2:0\r\nBit depth                      : 8 bits\r\nScan type                      : Progressive\r\nBits/(Pixel*Frame)             : 0.218\r\nStream size                    : 2.83 GiB (87%)\r\n\r\nAudio\r\nID                             : 2\r\nFormat                         : AC-3\r\nFormat/Info                    : Audio Coding 3\r\nMode extension                 : CM (complete main)\r\nFormat settings, Endianness    : Big\r\nCodec ID                       : A_AC3\r\nDuration                       : 1h 24mn\r\nBit rate mode                  : Constant\r\nBit rate                       : 640 Kbps\r\nChannel(s)                     : 6 channels\r\nChannel positions              : Front: L C R, Side: L R, LFE\r\nSampling rate                  : 48.0 KHz\r\nBit depth                      : 16 bits\r\nCompression mode               : Lossy\r\nStream size                    : 385 MiB (11%)\r\nLanguage                       : English\r\nDefault                        : Yes\r\nForced                         : No\r\n\r\nText #1\r\nID                             : 3\r\nFormat                         : UTF-8\r\nCodec ID                       : S_TEXT/UTF8\r\nCodec ID/Info                  : UTF-8 Plain Text\r\nLanguage                       : Portuguese\r\nDefault                        : Yes\r\nForced                         : No\r\n\r\nText #2\r\nID                             : 4\r\nFormat                         : UTF-8\r\nCodec ID                       : S_TEXT/UTF8\r\nCodec ID/Info                  : UTF-8 Plain Text\r\nLanguage                       : English\r\nDefault                        : No\r\nForced                         : No\r\n\r\nMenu\r\n00:00:00.000                   : en:00:00:00.000\r\n00:07:32.833                   : en:00:07:32.833\r\n00:13:13.667                   : en:00:13:13.667\r\n00:20:29.042                   : en:00:20:29.042\r\n00:28:12.542                   : en:00:28:12.542\r\n00:35:09.750                   : en:00:35:09.750\r\n00:40:03.750                   : en:00:40:03.750\r\n00:47:13.917                   : en:00:47:13.917\r\n00:59:07.708                   : en:00:59:07.708\r\n01:07:41.417                   : en:01:07:41.417\r\n01:15:42.500                   : en:01:15:42.500\r\n01:22:01.667                   : en:01:22:01.667","torrent":{"xt":"urn:btih:1b85ae6599fe29a7fe49b465dde0b3d245e8ad7b","amp;dn":"I+Am+Belfast+2015+BDRip+720p+Legendado+PT-BR","amp;tr":["udp%3A%2F%2Ftracker.leechers-paradise.org%3A6969","udp%3A%2F%2Fzer0day.ch%3A1337","udp%3A%2F%2Fopen.demonii.com%3A1337","udp%3A%2F%2Ftracker.coppersurfer.tk%3A6969","udp%3A%2F%2Fexodus.desync.com%3A6969"],"infoHash":"1b85ae6599fe29a7fe49b465dde0b3d245e8ad7b","infoHashBuffer":{"type":"Buffer","data":[27,133,174,101,153,254,41,167,254,73,180,101,221,224,179,210,69,232,173,123]},"announce":[],"urlList":[]}}